<!DOCTYPE svg PUBLIC "-//W3C//DTD SVG 1.1//EN" "http://www.w3.org/Graphics/SVG/1.1/DTD/svg11.dtd">
<!-- Uploaded to: SVG Repo, www.svgrepo.com, Transformed by: SVG Repo Mixer Tools -->
<svg fill="#ffffff" height="800px" width="800px" version="1.1" id="Layer_1" xmlns="http://www.w3.org/2000/svg" xmlns:xlink="http://www.w3.org/1999/xlink" viewBox="0 0 24 24" xml:space="preserve">
<g id="SVGRepo_bgCarrier" stroke-width="0"/>
<g id="SVGRepo_tracerCarrier" stroke-linecap="round" stroke-linejoin="round"/>
<g id="SVGRepo_iconCarrier"> <path d="M21,3V2h-6v1h-1v3h-1v2h-2v1H9V8H3v1H2v6h1v1h6v-1h2v1h2v2h1v3h1v1h6v-1h1v-6h-1v-1h-5v1h-1v-1h-2v-1h-1v-2h1v-1h2V9h1v1h5 V9h1V3H21z M20,7h-1v1h-2V7h-1V5h1V4h2v1h1V7z M7,13v1H5v-1H4v-2h1v-1h2v1h1v2H7z M17,16h2v1h1v2h-1v1h-2v-1h-1v-2h1V16z"/> </g>
</svg>